<svg xmlns="http://www.w3.org/2000/svg" width="390" height="844" viewBox="0 0 390 844">
<rect width="390" height="844" fill="#E9EEF5"/>
<rect x="19" y="12" width="352" height="820" rx="42" fill="#111827"/>
<rect x="29" y="22" width="332" height="800" rx="34" fill="#F8FAFC"/>
<rect x="151" y="31" width="88" height="22" rx="11" fill="#111827"/>
<text x="52" y="91" font-family="Arial" font-size="13" font-weight="700" fill="#64748B">B2B MARKETPLACE</text>
<text x="52" y="125" font-family="Arial" font-size="30" font-weight="700" fill="#0F172A">Orders</text>
<circle cx="326" cy="116" r="20" fill="#E2E8F0"/><path d="M326 106v10l7 5" fill="none" stroke="#475569" stroke-width="2"/>
<rect x="49" y="153" width="292" height="48" rx="14" fill="#FFFFFF" stroke="#CBD5E1"/>
<circle cx="73" cy="177" r="8" fill="none" stroke="#64748B" stroke-width="2"/><path d="m79 183 6 6" stroke="#64748B" stroke-width="2"/>
<text x="96" y="182" font-family="Arial" font-size="14" fill="#94A3B8">Search orders or customers</text>
<rect x="49" y="218" width="55" height="32" rx="16" fill="#172554"/><text x="67" y="239" font-family="Arial" font-size="12" font-weight="700" fill="#FFFFFF">All</text>
<rect x="112" y="218" width="93" height="32" rx="16" fill="#FFFFFF" stroke="#CBD5E1"/><text x="130" y="239" font-family="Arial" font-size="12" fill="#475569">Processing</text>
<rect x="213" y="218" width="72" height="32" rx="16" fill="#FFFFFF" stroke="#CBD5E1"/><text x="230" y="239" font-family="Arial" font-size="12" fill="#475569">Ready</text>
<rect x="49" y="270" width="292" height="142" rx="18" fill="#FFFFFF"/><text x="69" y="300" font-family="Arial" font-size="12" font-weight="700" fill="#64748B">ORD-1042</text>
<circle cx="310" cy="296" r="5" fill="#F59E0B"/>
<text x="69" y="325" font-family="Arial" font-size="17" font-weight="700" fill="#0F172A">Northstar Retail</text>
<text x="69" y="350" font-family="Arial" font-size="12" fill="#64748B">12 items · Today, 09:42</text>
<text x="69" y="383" font-family="Arial" font-size="12" font-weight="700" fill="#2563EB">Processing</text>
<text x="263" y="383" font-family="Arial" font-size="17" font-weight="700" fill="#0F172A">1 849 ₽</text>
<rect x="49" y="428" width="292" height="142" rx="18" fill="#FFFFFF"/><text x="69" y="458" font-family="Arial" font-size="12" font-weight="700" fill="#64748B">ORD-1041</text>
<text x="69" y="483" font-family="Arial" font-size="17" font-weight="700" fill="#0F172A">Morrow &amp; Co.</text>
<text x="69" y="508" font-family="Arial" font-size="12" fill="#64748B">4 items · Today, 08:18</text>
<text x="69" y="541" font-family="Arial" font-size="12" font-weight="700" fill="#16A34A">Ready</text>
<text x="277" y="541" font-family="Arial" font-size="17" font-weight="700" fill="#0F172A">725 ₽</text>
<text x="49" y="778" font-family="Arial" font-size="12" fill="#94A3B8">A focused operational view for B2B teams</text>
</svg>