<svg xmlns="http://www.w3.org/2000/svg" width="390" height="844" viewBox="0 0 390 844">
<rect width="390" height="844" fill="#FFF0EA"/>
<rect x="19" y="12" width="352" height="820" rx="42" fill="#17212B"/>
<rect x="29" y="22" width="332" height="800" rx="34" fill="#FFFBF8"/>
<rect x="151" y="31" width="88" height="22" rx="11" fill="#17212B"/>
<path d="M59 99h18" stroke="#64717B" stroke-width="3" stroke-linecap="round"/><path d="m62 99 8-8m-8 8 8 8" fill="none" stroke="#17212B" stroke-width="2"/>
<text x="52" y="139" font-family="Arial" font-size="12" font-weight="700" fill="#64717B">ORDER DETAILS</text>
<text x="52" y="177" font-family="Arial" font-size="30" font-weight="700" fill="#17212B">ORD-1042</text>
<rect x="52" y="197" width="99" height="29" rx="14" fill="#E3F3BB"/><text x="68" y="216" font-family="Arial" font-size="12" font-weight="700" fill="#356016">Processing</text>
<rect x="52" y="258" width="286" height="1" fill="#E0E5E3"/>
<text x="52" y="294" font-family="Arial" font-size="12" fill="#64717B">CUSTOMER</text>
<text x="52" y="321" font-family="Arial" font-size="18" font-weight="700" fill="#17212B">Northstar Retail</text>
<text x="52" y="359" font-family="Arial" font-size="12" fill="#64717B">CREATED</text>
<text x="52" y="385" font-family="Arial" font-size="16" font-weight="700" fill="#17212B">Today, 09:42</text>
<rect x="52" y="421" width="286" height="104" rx="16" fill="#F0F4F2"/>
<text x="72" y="453" font-family="Arial" font-size="12" fill="#64717B">ORDER SUMMARY</text>
<text x="72" y="484" font-family="Arial" font-size="16" font-weight="700" fill="#17212B">12 items</text>
<text x="257" y="484" font-family="Arial" font-size="20" font-weight="700" fill="#17212B">1 849 ₽</text>
<rect x="52" y="555" width="286" height="50" rx="25" fill="#17212B"/><text x="145" y="586" font-family="Arial" font-size="14" font-weight="700" fill="#FFFFFF">Move to ready</text>
<text x="52" y="764" font-family="Arial" font-size="12" fill="#9AA5A7">A clear next action for every order</text>
</svg>